<svg width="91" height="76" viewBox="0 0 91 76" fill="none" xmlns="http://www.w3.org/2000/svg">
<path d="M87.6573 59.2781C86.7274 59.2781 85.9585 58.9741 85.3505 58.3661C84.7425 57.7582 84.4385 56.9892 84.4385 56.0594V29.0219L46.6719 49.4073C46.1712 49.6934 45.6705 49.8901 45.1698 49.9974C44.6691 50.1047 44.1326 50.1583 43.5604 50.1583C42.9882 50.1583 42.4696 50.1047 42.0047 49.9974C41.5398 49.8901 41.0569 49.6934 40.5562 49.4073L1.60938 28.0562C1.03715 27.7701 0.625868 27.3767 0.375521 26.876C0.125174 26.3753 0 25.8389 0 25.2667C0 24.6944 0.125174 24.158 0.375521 23.6573C0.625868 23.1566 1.03715 22.7632 1.60938 22.4771L40.449 1.23333C40.9497 0.947222 41.4503 0.732639 41.951 0.589583C42.4517 0.446528 42.9882 0.375 43.5604 0.375C44.1326 0.375 44.6691 0.446528 45.1698 0.589583C45.6705 0.732639 46.1712 0.947222 46.6719 1.23333L89.1594 24.301C89.7316 24.6587 90.1608 25.0878 90.4469 25.5885C90.733 26.0892 90.876 26.6257 90.876 27.1979V56.0594C90.876 56.9892 90.572 57.7582 89.9641 58.3661C89.3561 58.9741 88.5871 59.2781 87.6573 59.2781ZM43.5604 75.801C42.9882 75.801 42.4517 75.7474 41.951 75.6401C41.4503 75.5328 40.9497 75.3361 40.449 75.05L15.7719 61.5312C14.7705 60.959 13.9658 60.1722 13.3578 59.1708C12.7498 58.1694 12.4458 57.0608 12.4458 55.8448V37.176L39.1615 51.7677L41.3073 52.8406C42.0226 53.1983 42.7736 53.3771 43.5604 53.3771C44.3472 53.3771 45.1161 53.1983 45.8672 52.8406C46.6182 52.483 47.3514 52.1253 48.0667 51.7677L74.675 37.176V55.8448C74.675 57.0608 74.371 58.1694 73.763 59.1708C73.155 60.1722 72.3503 60.959 71.349 61.5312L46.6719 75.05C46.1712 75.3361 45.6705 75.5328 45.1698 75.6401C44.6691 75.7474 44.1326 75.801 43.5604 75.801Z" fill="#535D66"/>
</svg>
